<?xml version='1.0' encoding='UTF-8'?>
<svg width="41mm" height="41mm" version="1.1" viewBox="0 0 41 41" xmlns="http://www.w3.org/2000/svg"><path d="M2,2H3V3H2zM3,2H4V3H3zM4,2H5V3H4zM5,2H6V3H5zM6,2H7V3H6zM7,2H8V3H7zM8,2H9V3H8zM15,2H16V3H15zM17,2H18V3H17zM18,2H19V3H18zM19,2H20V3H19zM23,2H24V3H23zM27,2H28V3H27zM28,2H29V3H28zM30,2H31V3H30zM32,2H33V3H32zM33,2H34V3H33zM34,2H35V3H34zM35,2H36V3H35zM36,2H37V3H36zM37,2H38V3H37zM38,2H39V3H38zM2,3H3V4H2zM8,3H9V4H8zM11,3H12V4H11zM13,3H14V4H13zM16,3H17V4H16zM18,3H19V4H18zM19,3H20V4H19zM22,3H23V4H22zM23,3H24V4H23zM24,3H25V4H24zM25,3H26V4H25zM26,3H27V4H26zM29,3H30V4H29zM30,3H31V4H30zM32,3H33V4H32zM38,3H39V4H38zM2,4H3V5H2zM4,4H5V5H4zM5,4H6V5H5zM6,4H7V5H6zM8,4H9V5H8zM10,4H11V5H10zM12,4H13V5H12zM13,4H14V5H13zM14,4H15V5H14zM15,4H16V5H15zM17,4H18V5H17zM23,4H24V5H23zM25,4H26V5H25zM29,4H30V5H29zM32,4H33V5H32zM34,4H35V5H34zM35,4H36V5H35zM36,4H37V5H36zM38,4H39V5H38zM2,5H3V6H2zM4,5H5V6H4zM5,5H6V6H5zM6,5H7V6H6zM8,5H9V6H8zM10,5H11V6H10zM12,5H13V6H12zM13,5H14V6H13zM14,5H15V6H14zM15,5H16V6H15zM17,5H18V6H17zM19,5H20V6H19zM24,5H25V6H24zM25,5H26V6H25zM26,5H27V6H26zM27,5H28V6H27zM28,5H29V6H28zM29,5H30V6H29zM32,5H33V6H32zM34,5H35V6H34zM35,5H36V6H35zM36,5H37V6H36zM38,5H39V6H38zM2,6H3V7H2zM4,6H5V7H4zM5,6H6V7H5zM6,6H7V7H6zM8,6H9V7H8zM10,6H11V7H10zM11,6H12V7H11zM12,6H13V7H12zM14,6H15V7H14zM19,6H20V7H19zM20,6H21V7H20zM21,6H22V7H21zM22,6H23V7H22zM23,6H24V7H23zM25,6H26V7H25zM30,6H31V7H30zM32,6H33V7H32zM34,6H35V7H34zM35,6H36V7H35zM36,6H37V7H36zM38,6H39V7H38zM2,7H3V8H2zM8,7H9V8H8zM10,7H11V8H10zM11,7H12V8H11zM14,7H15V8H14zM16,7H17V8H16zM17,7H18V8H17zM18,7H19V8H18zM19,7H20V8H19zM22,7H23V8H22zM23,7H24V8H23zM26,7H27V8H26zM27,7H28V8H27zM29,7H30V8H29zM30,7H31V8H30zM32,7H33V8H32zM38,7H39V8H38zM2,8H3V9H2zM3,8H4V9H3zM4,8H5V9H4zM5,8H6V9H5zM6,8H7V9H6zM7,8H8V9H7zM8,8H9V9H8zM10,8H11V9H10zM12,8H13V9H12zM14,8H15V9H14zM16,8H17V9H16zM18,8H19V9H18zM20,8H21V9H20zM22,8H23V9H22zM24,8H25V9H24zM26,8H27V9H26zM28,8H29V9H28zM30,8H31V9H30zM32,8H33V9H32zM33,8H34V9H33zM34,8H35V9H34zM35,8H36V9H35zM36,8H37V9H36zM37,8H38V9H37zM38,8H39V9H38zM10,9H11V10H10zM11,9H12V10H11zM13,9H14V10H13zM17,9H18V10H17zM18,9H19V10H18zM19,9H20V10H19zM20,9H21V10H20zM21,9H22V10H21zM23,9H24V10H23zM24,9H25V10H24zM2,10H3V11H2zM4,10H5V11H4zM5,10H6V11H5zM6,10H7V11H6zM7,10H8V11H7zM8,10H9V11H8zM14,10H15V11H14zM16,10H17V11H16zM17,10H18V11H17zM18,10H19V11H18zM23,10H24V11H23zM27,10H28V11H27zM28,10H29V11H28zM29,10H30V11H29zM32,10H33V11H32zM33,10H34V11H33zM34,10H35V11H34zM35,10H36V11H35zM36,10H37V11H36zM2,11H3V12H2zM3,11H4V12H3zM4,11H5V12H4zM5,11H6V12H5zM11,11H12V12H11zM14,11H15V12H14zM15,11H16V12H15zM16,11H17V12H16zM17,11H18V12H17zM19,11H20V12H19zM20,11H21V12H20zM22,11H23V12H22zM24,11H25V12H24zM26,11H27V12H26zM30,11H31V12H30zM31,11H32V12H31zM35,11H36V12H35zM36,11H37V12H36zM37,11H38V12H37zM4,12H5V13H4zM5,12H6V13H5zM7,12H8V13H7zM8,12H9V13H8zM9,12H10V13H9zM10,12H11V13H10zM13,12H14V13H13zM14,12H15V13H14zM16,12H17V13H16zM17,12H18V13H17zM18,12H19V13H18zM21,12H22V13H21zM23,12H24V13H23zM29,12H30V13H29zM30,12H31V13H30zM32,12H33V13H32zM33,12H34V13H33zM35,12H36V13H35zM37,12H38V13H37zM38,12H39V13H38zM3,13H4V14H3zM4,13H5V14H4zM6,13H7V14H6zM9,13H10V14H9zM11,13H12V14H11zM13,13H14V14H13zM14,13H15V14H14zM16,13H17V14H16zM17,13H18V14H17zM21,13H22V14H21zM22,13H23V14H22zM23,13H24V14H23zM24,13H25V14H24zM26,13H27V14H26zM28,13H29V14H28zM31,13H32V14H31zM33,13H34V14H33zM34,13H35V14H34zM38,13H39V14H38zM2,14H3V15H2zM5,14H6V15H5zM8,14H9V15H8zM9,14H10V15H9zM10,14H11V15H10zM11,14H12V15H11zM12,14H13V15H12zM13,14H14V15H13zM14,14H15V15H14zM17,14H18V15H17zM19,14H20V15H19zM20,14H21V15H20zM21,14H22V15H21zM24,14H25V15H24zM27,14H28V15H27zM28,14H29V15H28zM29,14H30V15H29zM30,14H31V15H30zM31,14H32V15H31zM32,14H33V15H32zM34,14H35V15H34zM35,14H36V15H35zM36,14H37V15H36zM37,14H38V15H37zM38,14H39V15H38zM2,15H3V16H2zM3,15H4V16H3zM6,15H7V16H6zM7,15H8V16H7zM9,15H10V16H9zM11,15H12V16H11zM14,15H15V16H14zM18,15H19V16H18zM20,15H21V16H20zM21,15H22V16H21zM22,15H23V16H22zM25,15H26V16H25zM28,15H29V16H28zM30,15H31V16H30zM33,15H34V16H33zM2,16H3V17H2zM6,16H7V17H6zM7,16H8V17H7zM8,16H9V17H8zM9,16H10V17H9zM10,16H11V17H10zM11,16H12V17H11zM12,16H13V17H12zM13,16H14V17H13zM17,16H18V17H17zM20,16H21V17H20zM24,16H25V17H24zM28,16H29V17H28zM29,16H30V17H29zM31,16H32V17H31zM32,16H33V17H32zM33,16H34V17H33zM34,16H35V17H34zM35,16H36V17H35zM37,16H38V17H37zM38,16H39V17H38zM7,17H8V18H7zM9,17H10V18H9zM14,17H15V18H14zM17,17H18V18H17zM18,17H19V18H18zM21,17H22V18H21zM22,17H23V18H22zM25,17H26V18H25zM26,17H27V18H26zM30,17H31V18H30zM33,17H34V18H33zM34,17H35V18H34zM37,17H38V18H37zM2,18H3V19H2zM3,18H4V19H3zM7,18H8V19H7zM8,18H9V19H8zM9,18H10V19H9zM11,18H12V19H11zM12,18H13V19H12zM15,18H16V19H15zM16,18H17V19H16zM17,18H18V19H17zM20,18H21V19H20zM21,18H22V19H21zM22,18H23V19H22zM23,18H24V19H23zM24,18H25V19H24zM26,18H27V19H26zM27,18H28V19H27zM32,18H33V19H32zM34,18H35V19H34zM36,18H37V19H36zM38,18H39V19H38zM2,19H3V20H2zM3,19H4V20H3zM4,19H5V20H4zM5,19H6V20H5zM11,19H12V20H11zM12,19H13V20H12zM13,19H14V20H13zM14,19H15V20H14zM15,19H16V20H15zM17,19H18V20H17zM18,19H19V20H18zM19,19H20V20H19zM23,19H24V20H23zM30,19H31V20H30zM31,19H32V20H31zM35,19H36V20H35zM37,19H38V20H37zM2,20H3V21H2zM3,20H4V21H3zM6,20H7V21H6zM8,20H9V21H8zM10,20H11V21H10zM13,20H14V21H13zM14,20H15V21H14zM19,20H20V21H19zM22,20H23V21H22zM24,20H25V21H24zM25,20H26V21H25zM26,20H27V21H26zM27,20H28V21H27zM29,20H30V21H29zM32,20H33V21H32zM33,20H34V21H33zM37,20H38V21H37zM38,20H39V21H38zM2,21H3V22H2zM3,21H4V22H3zM6,21H7V22H6zM11,21H12V22H11zM12,21H13V22H12zM14,21H15V22H14zM15,21H16V22H15zM18,21H19V22H18zM23,21H24V22H23zM24,21H25V22H24zM25,21H26V22H25zM30,21H31V22H30zM31,21H32V22H31zM32,21H33V22H32zM34,21H35V22H34zM38,21H39V22H38zM3,22H4V23H3zM6,22H7V23H6zM8,22H9V23H8zM10,22H11V23H10zM11,22H12V23H11zM16,22H17V23H16zM19,22H20V23H19zM24,22H25V23H24zM25,22H26V23H25zM26,22H27V23H26zM27,22H28V23H27zM28,22H29V23H28zM29,22H30V23H29zM31,22H32V23H31zM32,22H33V23H32zM34,22H35V23H34zM36,22H37V23H36zM3,23H4V24H3zM4,23H5V24H4zM7,23H8V24H7zM9,23H10V24H9zM12,23H13V24H12zM13,23H14V24H13zM16,23H17V24H16zM18,23H19V24H18zM19,23H20V24H19zM20,23H21V24H20zM21,23H22V24H21zM23,23H24V24H23zM25,23H26V24H25zM27,23H28V24H27zM31,23H32V24H31zM35,23H36V24H35zM37,23H38V24H37zM2,24H3V25H2zM3,24H4V25H3zM6,24H7V25H6zM7,24H8V25H7zM8,24H9V25H8zM10,24H11V25H10zM14,24H15V25H14zM15,24H16V25H15zM17,24H18V25H17zM19,24H20V25H19zM23,24H24V25H23zM27,24H28V25H27zM28,24H29V25H28zM29,24H30V25H29zM30,24H31V25H30zM31,24H32V25H31zM32,24H33V25H32zM33,24H34V25H33zM34,24H35V25H34zM35,24H36V25H35zM37,24H38V25H37zM38,24H39V25H38zM2,25H3V26H2zM3,25H4V26H3zM4,25H5V26H4zM5,25H6V26H5zM7,25H8V26H7zM9,25H10V26H9zM10,25H11V26H10zM12,25H13V26H12zM13,25H14V26H13zM14,25H15V26H14zM15,25H16V26H15zM18,25H19V26H18zM19,25H20V26H19zM20,25H21V26H20zM22,25H23V26H22zM23,25H24V26H23zM24,25H25V26H24zM33,25H34V26H33zM34,25H35V26H34zM37,25H38V26H37zM38,25H39V26H38zM6,26H7V27H6zM8,26H9V27H8zM10,26H11V27H10zM11,26H12V27H11zM13,26H14V27H13zM14,26H15V27H14zM16,26H17V27H16zM18,26H19V27H18zM21,26H22V27H21zM23,26H24V27H23zM26,26H27V27H26zM27,26H28V27H27zM28,26H29V27H28zM29,26H30V27H29zM30,26H31V27H30zM32,26H33V27H32zM33,26H34V27H33zM34,26H35V27H34zM36,26H37V27H36zM37,26H38V27H37zM2,27H3V28H2zM3,27H4V28H3zM6,27H7V28H6zM7,27H8V28H7zM11,27H12V28H11zM12,27H13V28H12zM13,27H14V28H13zM14,27H15V28H14zM16,27H17V28H16zM17,27H18V28H17zM20,27H21V28H20zM22,27H23V28H22zM24,27H25V28H24zM26,27H27V28H26zM27,27H28V28H27zM28,27H29V28H28zM30,27H31V28H30zM31,27H32V28H31zM33,27H34V28H33zM35,27H36V28H35zM2,28H3V29H2zM8,28H9V29H8zM11,28H12V29H11zM13,28H14V29H13zM15,28H16V29H15zM17,28H18V29H17zM18,28H19V29H18zM19,28H20V29H19zM20,28H21V29H20zM21,28H22V29H21zM23,28H24V29H23zM26,28H27V29H26zM27,28H28V29H27zM29,28H30V29H29zM30,28H31V29H30zM32,28H33V29H32zM33,28H34V29H33zM35,28H36V29H35zM36,28H37V29H36zM37,28H38V29H37zM38,28H39V29H38zM2,29H3V30H2zM4,29H5V30H4zM6,29H7V30H6zM9,29H10V30H9zM11,29H12V30H11zM12,29H13V30H12zM14,29H15V30H14zM17,29H18V30H17zM20,29H21V30H20zM21,29H22V30H21zM22,29H23V30H22zM23,29H24V30H23zM24,29H25V30H24zM25,29H26V30H25zM28,29H29V30H28zM30,29H31V30H30zM33,29H34V30H33zM38,29H39V30H38zM2,30H3V31H2zM4,30H5V31H4zM8,30H9V31H8zM9,30H10V31H9zM10,30H11V31H10zM12,30H13V31H12zM13,30H14V31H13zM14,30H15V31H14zM16,30H17V31H16zM17,30H18V31H17zM19,30H20V31H19zM21,30H22V31H21zM24,30H25V31H24zM26,30H27V31H26zM27,30H28V31H27zM28,30H29V31H28zM30,30H31V31H30zM31,30H32V31H31zM32,30H33V31H32zM33,30H34V31H33zM34,30H35V31H34zM35,30H36V31H35zM36,30H37V31H36zM38,30H39V31H38zM10,31H11V32H10zM13,31H14V32H13zM16,31H17V32H16zM18,31H19V32H18zM21,31H22V32H21zM22,31H23V32H22zM24,31H25V32H24zM25,31H26V32H25zM30,31H31V32H30zM34,31H35V32H34zM35,31H36V32H35zM2,32H3V33H2zM3,32H4V33H3zM4,32H5V33H4zM5,32H6V33H5zM6,32H7V33H6zM7,32H8V33H7zM8,32H9V33H8zM12,32H13V33H12zM13,32H14V33H13zM14,32H15V33H14zM15,32H16V33H15zM17,32H18V33H17zM18,32H19V33H18zM20,32H21V33H20zM22,32H23V33H22zM24,32H25V33H24zM26,32H27V33H26zM27,32H28V33H27zM28,32H29V33H28zM30,32H31V33H30zM32,32H33V33H32zM34,32H35V33H34zM36,32H37V33H36zM38,32H39V33H38zM2,33H3V34H2zM8,33H9V34H8zM10,33H11V34H10zM12,33H13V34H12zM14,33H15V34H14zM17,33H18V34H17zM18,33H19V34H18zM30,33H31V34H30zM34,33H35V34H34zM35,33H36V34H35zM37,33H38V34H37zM38,33H39V34H38zM2,34H3V35H2zM4,34H5V35H4zM5,34H6V35H5zM6,34H7V35H6zM8,34H9V35H8zM10,34H11V35H10zM12,34H13V35H12zM13,34H14V35H13zM15,34H16V35H15zM17,34H18V35H17zM20,34H21V35H20zM22,34H23V35H22zM23,34H24V35H23zM24,34H25V35H24zM26,34H27V35H26zM27,34H28V35H27zM28,34H29V35H28zM29,34H30V35H29zM30,34H31V35H30zM31,34H32V35H31zM32,34H33V35H32zM33,34H34V35H33zM34,34H35V35H34zM36,34H37V35H36zM38,34H39V35H38zM2,35H3V36H2zM4,35H5V36H4zM5,35H6V36H5zM6,35H7V36H6zM8,35H9V36H8zM10,35H11V36H10zM15,35H16V36H15zM17,35H18V36H17zM18,35H19V36H18zM23,35H24V36H23zM25,35H26V36H25zM27,35H28V36H27zM29,35H30V36H29zM31,35H32V36H31zM32,35H33V36H32zM34,35H35V36H34zM35,35H36V36H35zM36,35H37V36H36zM38,35H39V36H38zM2,36H3V37H2zM4,36H5V37H4zM5,36H6V37H5zM6,36H7V37H6zM8,36H9V37H8zM10,36H11V37H10zM11,36H12V37H11zM14,36H15V37H14zM16,36H17V37H16zM19,36H20V37H19zM20,36H21V37H20zM22,36H23V37H22zM23,36H24V37H23zM24,36H25V37H24zM36,36H37V37H36zM37,36H38V37H37zM38,36H39V37H38zM2,37H3V38H2zM8,37H9V38H8zM12,37H13V38H12zM13,37H14V38H13zM14,37H15V38H14zM15,37H16V38H15zM18,37H19V38H18zM20,37H21V38H20zM23,37H24V38H23zM25,37H26V38H25zM26,37H27V38H26zM28,37H29V38H28zM29,37H30V38H29zM30,37H31V38H30zM34,37H35V38H34zM38,37H39V38H38zM2,38H3V39H2zM3,38H4V39H3zM4,38H5V39H4zM5,38H6V39H5zM6,38H7V39H6zM7,38H8V39H7zM8,38H9V39H8zM10,38H11V39H10zM11,38H12V39H11zM12,38H13V39H12zM15,38H16V39H15zM19,38H20V39H19zM24,38H25V39H24zM27,38H28V39H27zM28,38H29V39H28zM29,38H30V39H29zM32,38H33V39H32zM34,38H35V39H34zM35,38H36V39H35zM36,38H37V39H36zM37,38H38V39H37zM38,38H39V39H38z" id="qr-path" fill="#000000" fill-opacity="1" fill-rule="nonzero" stroke="none"/></svg>